<svg  viewBox="0 0 22 20" fill="none" xmlns="http://www.w3.org/2000/svg">
<path d="M6.9949 12.7059H6.99589C6.99672 12.7059 6.99755 12.7058 6.99838 12.7058H18.5303C18.8142 12.7058 19.0638 12.5177 19.1418 12.245L21.686 3.35098C21.7408 3.15924 21.7024 2.9531 21.5823 2.79394C21.4621 2.63479 21.2741 2.54115 21.0745 2.54115H5.52801L5.07333 0.497477C5.00857 0.2068 4.7505 0 4.45235 0H0.636051C0.284732 0 0 0.284391 0 0.635288C0 0.986186 0.284732 1.27058 0.636051 1.27058H3.94219C4.02269 1.63272 6.11801 11.0505 6.2386 11.5924C5.56263 11.8858 5.0884 12.559 5.0884 13.3411C5.0884 14.3919 5.94442 15.2469 6.99656 15.2469H18.5303C18.8816 15.2469 19.1663 14.9625 19.1663 14.6116C19.1663 14.2607 18.8816 13.9763 18.5303 13.9763H6.99656C6.6459 13.9763 6.36051 13.6913 6.36051 13.3411C6.36051 12.9913 6.64491 12.7068 6.9949 12.7059ZM20.2312 3.81173L18.0504 11.4352H7.50672L5.81059 3.81173H20.2312Z" fill="#956D84"/>
<path d="M6.36133 17.1527C6.36133 18.2036 7.21735 19.0586 8.26948 19.0586C9.32161 19.0586 10.1776 18.2036 10.1776 17.1527C10.1776 16.1018 9.32161 15.2468 8.26948 15.2468C7.21735 15.2468 6.36133 16.1018 6.36133 17.1527ZM8.26948 16.5174C8.62014 16.5174 8.90553 16.8025 8.90553 17.1527C8.90553 17.5029 8.62014 17.788 8.26948 17.788C7.91882 17.788 7.63343 17.5029 7.63343 17.1527C7.63343 16.8025 7.91882 16.5174 8.26948 16.5174Z" fill="#956D84"/>
<path d="M15.3496 17.1527C15.3496 18.2036 16.2056 19.0586 17.2578 19.0586C18.3099 19.0586 19.1659 18.2036 19.1659 17.1527C19.1659 16.1018 18.3099 15.2468 17.2578 15.2468C16.2056 15.2468 15.3496 16.1018 15.3496 17.1527ZM17.2578 16.5174C17.6084 16.5174 17.8938 16.8025 17.8938 17.1527C17.8938 17.5029 17.6084 17.788 17.2578 17.788C16.9071 17.788 16.6217 17.5029 16.6217 17.1527C16.6217 16.8025 16.9071 16.5174 17.2578 16.5174Z" fill="#956D84"/>
</svg>
