<svg viewBox="0 0 21.7109 19.0587" xmlns="http://www.w3.org/2000/svg" xmlns:xlink="http://www.w3.org/1999/xlink"  fill="none" customFrame="#000000">
	<g id="Group 1308">
		<path id="Vector" d="M6.9949 12.7059L6.99589 12.7059C6.99672 12.7059 6.99755 12.7058 6.99838 12.7058L18.5303 12.7058C18.8142 12.7058 19.0638 12.5177 19.1418 12.245L21.686 3.35098C21.7408 3.15924 21.7024 2.9531 21.5823 2.79394C21.4621 2.63479 21.2741 2.54115 21.0745 2.54115L5.52801 2.54115L5.07333 0.497477C5.00857 0.2068 4.7505 0 4.45235 0L0.636051 0C0.284732 0 0 0.284391 0 0.635288C0 0.986186 0.284732 1.27058 0.636051 1.27058L3.94219 1.27058C4.02269 1.63272 6.11801 11.0505 6.2386 11.5924C5.56263 11.8858 5.0884 12.559 5.0884 13.3411C5.0884 14.3919 5.94442 15.2469 6.99656 15.2469L18.5303 15.2469C18.8816 15.2469 19.1663 14.9625 19.1663 14.6116C19.1663 14.2607 18.8816 13.9763 18.5303 13.9763L6.99656 13.9763C6.6459 13.9763 6.36051 13.6913 6.36051 13.3411C6.36051 12.9913 6.64491 12.7068 6.9949 12.7059ZM20.2312 3.81173L18.0504 11.4352L7.50672 11.4352L5.81059 3.81173L20.2312 3.81173Z" fill="rgb(255,255,255)" fill-rule="nonzero" />
		<path id="Vector" d="M6.36133 17.1528C6.36133 18.2037 7.21735 19.0587 8.26948 19.0587C9.32161 19.0587 10.1776 18.2037 10.1776 17.1528C10.1776 16.1019 9.32161 15.2469 8.26948 15.2469C7.21735 15.2469 6.36133 16.1019 6.36133 17.1528ZM8.26948 16.5175C8.62014 16.5175 8.90553 16.8026 8.90553 17.1528C8.90553 17.503 8.62014 17.7881 8.26948 17.7881C7.91882 17.7881 7.63343 17.503 7.63343 17.1528C7.63343 16.8026 7.91882 16.5175 8.26948 16.5175Z" fill="rgb(255,255,255)" fill-rule="nonzero" />
		<path id="Vector" d="M15.3496 17.1528C15.3496 18.2037 16.2056 19.0587 17.2578 19.0587C18.3099 19.0587 19.1659 18.2037 19.1659 17.1528C19.1659 16.1019 18.3099 15.2469 17.2578 15.2469C16.2056 15.2469 15.3496 16.1019 15.3496 17.1528ZM17.2578 16.5175C17.6084 16.5175 17.8938 16.8026 17.8938 17.1528C17.8938 17.503 17.6084 17.7881 17.2578 17.7881C16.9071 17.7881 16.6217 17.503 16.6217 17.1528C16.6217 16.8026 16.9071 16.5175 17.2578 16.5175Z" fill="rgb(255,255,255)" fill-rule="nonzero" />
	</g>
</svg>
