<svg  viewBox="0 0 16 12" fill="none" xmlns="http://www.w3.org/2000/svg">
<path d="M15.7968 4.7375L13.9598 2.66875C13.8076 2.49738 13.5892 2.39953 13.36 2.4H10.9333V0.8C10.9329 0.358375 10.575 0.00046875 10.1333 0H0.8C0.358375 0.00046875 0.000468776 0.358375 2.60427e-08 0.8V7.73334C-3.1224e-05 7.80406 0.0280625 7.87191 0.0780938 7.92194C0.128094 7.97194 0.195938 8.00003 0.266688 8.00003H0.533344V8.80003C0.533812 9.24166 0.891719 9.59956 1.33334 9.60003H1.88797C2.01941 10.5182 2.80584 11.2 3.73334 11.2C4.66084 11.2 5.44728 10.5182 5.57872 9.60003H10.4213C10.5528 10.5182 11.3392 11.2 12.2667 11.2C13.1942 11.2 13.9807 10.5182 14.1121 9.60003H15.2C15.6416 9.59956 15.9995 9.24166 16 8.80003V5.26928C15.9998 5.07306 15.9275 4.88381 15.7968 4.7375ZM0.533344 7.46666V0.8C0.5335 0.652781 0.652781 0.533469 0.8 0.533344H10.1333C10.2806 0.5335 10.3999 0.652781 10.4 0.8V7.46666H0.533344ZM1.88797 9.06666H1.33334C1.18613 9.0665 1.06681 8.94722 1.06669 8.8V8H2.4295C2.13656 8.28631 1.94622 8.66122 1.88797 9.06666ZM3.73334 10.6667C2.99697 10.6667 2.4 10.0697 2.4 9.33331C2.4 8.59694 2.99697 8 3.73334 8C4.46972 8 5.06669 8.59697 5.06669 9.33334C5.06581 10.0693 4.46934 10.6658 3.73334 10.6667ZM6.4 9.06666H5.57869C5.52044 8.66122 5.33012 8.28628 5.03719 8H6.4V9.06666ZM8.8 9.06666H6.93334V8H8.8V9.06666ZM10.4213 9.06666H9.33334V8H10.9628C10.6699 8.28631 10.4796 8.66122 10.4213 9.06666ZM12.2667 10.6667C11.5303 10.6667 10.9333 10.0697 10.9333 9.33331C10.9333 8.59694 11.5302 7.99997 12.2667 7.99997C13.003 7.99997 13.6 8.59694 13.6 9.33331C13.5991 10.0693 13.0027 10.6658 12.2667 10.6667ZM15.4667 8.8C15.4665 8.94722 15.3472 9.06653 15.2 9.06666H14.112C13.9791 8.14938 13.1936 7.46831 12.2667 7.46666H10.9333V2.93334H12V5.6C12.0005 6.04163 12.3584 6.39953 12.8 6.4H15.4667V8.8ZM15.4667 5.86666H12.8C12.6528 5.8665 12.5335 5.74722 12.5333 5.6V2.93334H13.36C13.4366 2.93291 13.5097 2.96534 13.5607 3.02241L15.3983 5.09194C15.4421 5.14069 15.4664 5.20378 15.4667 5.26928V5.86666H15.4667Z" fill="#956D84"/>
</svg>
