<svg viewBox="0 0 24 24" fill="none" xmlns="http://www.w3.org/2000/svg">
<g clip-path="url(#clip0_0_6021)">
<path d="M13.1467 23.1642H9.42992C8.80909 23.1642 8.30408 22.6592 8.30408 22.0384V13.6549H6.13561C5.51478 13.6549 5.00977 13.1497 5.00977 12.5291V8.93674C5.00977 8.31591 5.51478 7.81089 6.13561 7.81089H8.30408V6.01198C8.30408 4.2283 8.86416 2.71077 9.92361 1.6237C10.9878 0.531678 12.4751 -0.0454102 14.2246 -0.0454102L17.0592 -0.0408062C17.679 -0.0397437 18.1831 0.465275 18.1831 1.08504V4.42043C18.1831 5.04126 17.6783 5.54627 17.0576 5.54627L15.1491 5.54698C14.5671 5.54698 14.4188 5.66367 14.3871 5.69944C14.3349 5.75876 14.2728 5.92646 14.2728 6.38951V7.81071H16.9142C17.113 7.81071 17.3057 7.85976 17.4713 7.9522C17.8284 8.15176 18.0505 8.52911 18.0505 8.93691L18.0491 12.5292C18.0491 13.1497 17.544 13.6547 16.9232 13.6547H14.2728V22.0384C14.2728 22.6592 13.7676 23.1642 13.1467 23.1642ZM9.66472 21.8036H12.9119V13.0458C12.9119 12.6312 13.2493 12.2941 13.6636 12.2941H16.6884L16.6897 9.17154H13.6634C13.2491 9.17154 12.9119 8.83439 12.9119 8.41985V6.38951C12.9119 5.85793 12.9659 5.25339 13.3672 4.79902C13.852 4.24973 14.6161 4.18634 15.1487 4.18634L16.8225 4.18563V1.31949L14.2235 1.31524C11.4119 1.31524 9.66472 3.11503 9.66472 6.01198V8.41985C9.66472 8.83421 9.32757 9.17154 8.91321 9.17154H6.37041V12.2941H8.91321C9.32757 12.2941 9.66472 12.6312 9.66472 13.0458V21.8036ZM17.0566 1.31984H17.0567H17.0566Z" fill="white"/>
</g>
<defs>
<clipPath id="clip0_0_6021">
<rect width="23.1643" height="23.2096" fill="white"/>
</clipPath>
</defs>
</svg>
