<svg  viewBox="0 0 26 23" fill="none" xmlns="http://www.w3.org/2000/svg">
<path d="M12.7241 22.4C12.3618 22.4 12.0126 22.2701 11.7404 22.0343C10.7123 21.1449 9.72114 20.3091 8.84667 19.5719L8.8422 19.568C6.27839 17.4064 4.06444 15.5397 2.52401 13.7008C0.802054 11.6451 0 9.69594 0 7.56662C0 5.49781 0.717014 3.5892 2.01882 2.19213C3.33616 0.778541 5.14375 0 7.10918 0C8.57815 0 9.92345 0.459479 11.1076 1.36557C11.7052 1.82293 12.2469 2.38268 12.7241 3.0356C13.2016 2.38268 13.7431 1.82293 14.3409 1.36557C15.525 0.459479 16.8703 0 18.3393 0C20.3045 0 22.1123 0.778541 23.4296 2.19213C24.7315 3.5892 25.4483 5.49781 25.4483 7.56662C25.4483 9.69594 24.6464 11.6451 22.9245 13.7006C21.384 15.5397 19.1703 17.4062 16.6068 19.5676C15.7308 20.306 14.7381 21.1432 13.7077 22.0346C13.4357 22.2701 13.0862 22.4 12.7241 22.4ZM7.10918 1.47487C5.56506 1.47487 4.14657 2.08456 3.11463 3.19177C2.06736 4.31569 1.49053 5.86931 1.49053 7.56662C1.49053 9.35747 2.16327 10.9591 3.67166 12.7598C5.12957 14.5003 7.29809 16.3286 9.8089 18.4456L9.81356 18.4495C10.6913 19.1896 11.6864 20.0286 12.722 20.9246C13.7638 20.0269 14.7604 19.1865 15.64 18.4453C18.1506 16.3282 20.3189 14.5003 21.7768 12.7598C23.285 10.9591 23.9577 9.35747 23.9577 7.56662C23.9577 5.86931 23.3809 4.31569 22.3336 3.19177C21.3019 2.08456 19.8832 1.47487 18.3393 1.47487C17.2081 1.47487 16.1696 1.83062 15.2526 2.53213C14.4354 3.15758 13.8662 3.94822 13.5324 4.50144C13.3608 4.78592 13.0587 4.95573 12.7241 4.95573C12.3896 4.95573 12.0875 4.78592 11.9159 4.50144C11.5823 3.94822 11.0131 3.15758 10.1957 2.53213C9.27866 1.83062 8.24013 1.47487 7.10918 1.47487Z" fill="#956D84"/>
</svg>
