<svg viewBox="0 0 42.2617 42.2609" xmlns="http://www.w3.org/2000/svg" xmlns:xlink="http://www.w3.org/1999/xlink"  fill="currentColor">
	<rect id="giftbox (1) 1" width="42.260868" height="42.260868" x="0.000000" y="0.000000" fill="currentColor" fill-opacity="0" />
	<path id="Vector" d="M41.6088 8.52708L38.1678 8.52708C38.2678 8.38682 38.3584 8.23947 38.4377 8.08503C38.893 7.19578 38.9546 6.14854 38.6067 5.21157L37.5639 2.40904C37.2164 1.47304 36.4861 0.720494 35.561 0.344545C34.635 -0.031726 33.5862 -0.0017404 32.6831 0.427086L24.4309 4.34618C24.023 4.0547 23.5242 3.88253 22.9858 3.88253L19.2753 3.88253C18.7368 3.88253 18.2377 4.05503 17.8298 4.3465L9.57799 0.426764C8.67488 -0.0017404 7.62602 -0.031726 6.70002 0.344545C5.77498 0.720494 5.04468 1.47304 4.6971 2.40872L3.65438 5.21189C3.30648 6.14854 3.36806 7.19578 3.82365 8.08503C3.90265 8.23947 3.99357 8.38714 4.09352 8.52708L0.652268 8.52708C0.292118 8.52708 7.33112e-17 8.81887 7.33112e-17 9.17934L7.33112e-17 13.8748C7.33112e-17 14.235 0.292118 14.5271 0.652268 14.5271C1.01242 14.5271 1.30454 14.235 1.30454 13.8748L1.30454 9.83129L5.83495 9.83129C5.90749 9.85676 5.98101 9.8803 6.05549 9.90093L11.5312 11.4083C10.3144 13.2729 9.24106 15.2342 8.32214 17.2664L1.30454 17.2664L1.30454 16.4836C1.30454 16.1234 1.01242 15.8316 0.652268 15.8316C0.292118 15.8316 0 16.1234 0 16.4836L0 17.9187C0 18.2789 0.292118 18.571 0.652268 18.571L2.97825 18.571L2.97825 41.6622C2.97825 42.0226 3.27037 42.3144 3.63052 42.3144L38.6305 42.3144C38.9907 42.3144 39.2828 42.0226 39.2828 41.6622L39.2828 37.8749C39.2828 37.5148 38.9907 37.2227 38.6305 37.2227C38.2701 37.2227 37.9783 37.5148 37.9783 37.8749L37.9783 41.0102L25.0435 41.0102L25.0435 18.9721C26.891 22.4714 28.1417 26.2763 28.7172 30.2077C28.7553 30.4679 28.9461 30.6797 29.2012 30.7448C29.2547 30.7587 29.3089 30.7651 29.3627 30.7651C29.5642 30.7651 29.7583 30.6716 29.8834 30.5056C30.821 29.2617 31.6929 27.93 32.4799 26.5397C33.798 27.4374 35.0777 28.4382 36.292 29.5215C36.4967 29.704 36.794 29.7392 37.0355 29.6089C37.277 29.479 37.4114 29.2117 37.3715 28.9402C36.8507 25.388 35.8799 21.8949 34.5038 18.571L37.9779 18.571L37.9779 35.2659C37.9779 35.6264 38.2701 35.9181 38.6302 35.9181C38.9907 35.9181 39.2825 35.6264 39.2825 35.2659L39.2825 18.571L41.6088 18.571C41.9689 18.571 42.2607 18.2789 42.2607 17.9187L42.2607 9.17934C42.261 8.81887 41.9692 8.52708 41.6088 8.52708ZM33.2425 1.60523C33.8244 1.32923 34.4732 1.31053 35.07 1.553C35.6658 1.79514 36.1172 2.2604 36.3413 2.86366L37.3837 5.66587C37.6081 6.26945 37.5697 6.91752 37.2763 7.49048C36.9832 8.0631 36.4799 8.47259 35.8596 8.64315L25.4771 11.5015L25.4771 8.36683C27.8109 6.93784 33.6287 3.99054 35.0767 6.0344C35.2847 6.32813 35.6916 6.3981 35.9857 6.18981C36.2797 5.98152 36.3494 5.5743 36.1411 5.28057C35.0235 3.70294 32.6685 3.6262 29.1409 5.05293C27.6877 5.64039 26.3461 6.35747 25.4771 6.85497L25.4771 6.37359C25.4771 6.0244 25.4046 5.69166 25.2743 5.38955L33.2425 1.60523ZM19.2753 5.18674L22.9858 5.18674C23.6403 5.18674 24.1726 5.71939 24.1726 6.37359L24.1726 11.7649C24.1726 12.4194 23.6403 12.9517 22.9858 12.9517L19.2753 12.9517C18.6208 12.9517 18.0884 12.4194 18.0884 11.7649L18.0884 6.37359C18.0884 5.71907 18.6208 5.18674 19.2753 5.18674ZM18.179 17.2661C18.8029 16.2295 19.482 15.2248 20.2126 14.2563L22.0478 14.2563C22.7788 15.2248 23.4578 16.2295 24.0814 17.2661L18.179 17.2661ZM4.98471 7.49048C4.6913 6.91752 4.65293 6.26945 4.87702 5.66619L5.92007 2.86334C6.14383 2.2604 6.59523 1.79514 7.19107 1.553C7.78756 1.31053 8.4366 1.32923 9.01826 1.60523L16.9867 5.39019C16.8564 5.69198 16.7839 6.0244 16.7839 6.37391L16.7839 6.89237C15.9179 6.3939 14.5459 5.65555 13.0557 5.05293C9.52834 3.6262 7.17302 3.70294 6.05549 5.28057C5.8472 5.5743 5.91684 5.98152 6.2109 6.18981C6.50495 6.3981 6.91185 6.32845 7.11981 6.0344C8.58137 3.97119 14.495 6.99362 16.7839 8.40649L16.7839 11.5015L6.40177 8.64347C5.7811 8.47259 5.27779 8.0631 4.98471 7.49048ZM17.0767 12.935C17.4013 13.5424 17.9701 14.0006 18.6514 14.1769C15.6009 18.433 13.501 23.3232 12.5159 28.4633C11.823 27.4509 11.1753 26.3898 10.5823 25.2939C10.4956 25.1333 10.346 25.0166 10.169 24.9718C9.99231 24.927 9.80498 24.9582 9.65247 25.0579C8.56622 25.7662 7.50253 26.5433 6.47529 27.3777C7.53317 21.8249 9.71889 16.4707 12.8532 11.7723L17.0767 12.935ZM4.28279 18.571L7.75725 18.571C6.38114 21.8949 5.41031 25.3877 4.88927 28.9402C4.84961 29.2117 4.98374 29.479 5.22524 29.6089C5.46706 29.7388 5.76401 29.704 5.96875 29.5215C7.18301 28.4382 8.46272 27.4374 9.78112 26.5397C10.5682 27.93 11.4397 29.2613 12.3776 30.5056C12.5027 30.6716 12.6968 30.7655 12.8983 30.7655C12.9522 30.7655 13.0063 30.7587 13.0599 30.7448C13.3149 30.6797 13.5055 30.4679 13.5435 30.2077C14.1194 26.2763 15.3701 22.471 17.2172 18.9717L17.2172 41.0102L4.28279 41.0102L4.28279 18.571ZM18.5218 41.0102L18.5218 18.571L23.7393 18.571L23.7393 41.0102L18.5218 41.0102ZM32.6086 25.0579C32.4561 24.9582 32.2684 24.9273 32.092 24.9721C31.9154 25.0169 31.7654 25.1336 31.6787 25.2939C31.0858 26.3898 30.438 27.4512 29.7451 28.4633C28.7601 23.3229 26.6601 18.433 23.6093 14.1773C24.2906 14.0012 24.8597 13.5427 25.1844 12.935L29.4088 11.772C32.5425 16.4713 34.7282 21.8255 35.7861 27.3777C34.7585 26.5433 33.6948 25.7662 32.6086 25.0579ZM40.9565 17.2664L33.9392 17.2664C33.0203 15.2342 31.947 13.2729 30.7304 11.4083L36.2056 9.90093C36.28 9.8803 36.3536 9.85676 36.4261 9.83129L40.9565 9.83129L40.9565 17.2664Z" fill="currentColor" fill-rule="nonzero" />
</svg>
