<svg viewBox="0 0 46 45.9985" xmlns="http://www.w3.org/2000/svg" xmlns:xlink="http://www.w3.org/1999/xlink"  fill="currentColor" customFrame="#000000">
	<g id="Group">
		<path id="Vector" d="M45.6959 15.6511C45.4477 15.3123 45.0824 15.0904 44.6674 15.0263L31.3041 12.9626L31.3041 1.57226C31.3041 0.705361 30.5988 0 29.7319 0L1.57226 0C0.705361 0 0 0.705361 0 1.57226L0 29.7497C0 30.6166 0.705361 31.3219 1.57226 31.3219L12.0665 31.3219L10.7435 39.8897C10.6125 40.7374 11.2095 41.5527 12.0573 41.6836L39.887 45.9814C40.7157 46.1093 41.5518 45.5024 41.6807 44.6674L42.4003 40.0075C42.5333 39.1466 41.2014 38.9406 41.0685 39.8019C40.9778 40.3886 40.5592 44.7196 40.0926 44.6496L12.263 40.3517C12.1297 40.3181 12.067 40.2327 12.0753 40.0954L13.4302 31.322L14.938 31.322L13.842 38.4187C13.7852 38.7866 14.0373 39.1307 14.4051 39.1875L38.4014 42.8934C38.7401 42.9455 39.1169 42.675 39.1702 42.3303L42.8826 18.2912C42.9394 17.9234 42.6873 17.5792 42.3195 17.5224L31.304 15.8212L31.304 14.3262L44.4617 16.3582C44.595 16.3918 44.6576 16.4773 44.6494 16.6146L41.5932 36.4041C41.4639 37.2412 42.7899 37.4849 42.925 36.6097L45.9812 16.8202C46.0454 16.4051 45.9439 15.99 45.6959 15.6511ZM1.34765 29.7497L1.34765 1.57226C1.34765 1.44837 1.44846 1.34765 1.57226 1.34765L29.7318 1.34765C29.8556 1.34765 29.9564 1.44837 29.9564 1.57226L29.9564 29.7497C29.9564 29.8736 29.8556 29.9743 29.7318 29.9743L1.57226 29.9743C1.44846 29.9743 1.34765 29.8736 1.34765 29.7497ZM41.4479 18.7514L37.9411 41.4586L15.2767 37.9584L16.3016 31.3219L29.7318 31.3219C30.5987 31.3219 31.304 30.6166 31.304 29.7497L31.304 17.1848L41.4479 18.7514Z" fill="currentColor" fill-rule="nonzero" />
		<path id="Vector" d="M27.7925 2.82422L3.51172 2.82422C3.13958 2.82422 2.83789 3.12582 2.83789 3.49804L2.83789 6.86627C2.83789 7.73748 4.18554 7.73748 4.18554 6.86627L4.18554 4.17187L27.1186 4.17187L27.1186 27.1482L4.18554 27.1482L4.18554 10.4499C4.18554 9.57873 2.83789 9.57873 2.83789 10.4499L2.83789 27.8221C2.83789 28.1943 3.13958 28.4959 3.51172 28.4959L27.7924 28.4959C28.1646 28.4959 28.4663 28.1943 28.4663 27.8221L28.4663 3.49804C28.4663 3.12582 28.1647 2.82422 27.7925 2.82422Z" fill="currentColor" fill-rule="nonzero" />
		<path id="Vector" d="M15.6527 22.3632C15.7406 22.3632 15.8286 22.3461 15.9113 22.3116C15.987 22.2801 17.784 21.5253 19.6113 20.099C22.1023 18.1546 23.4357 15.8885 23.4673 13.5455C23.5003 11.0948 21.6333 8.70752 19.0648 8.70752C17.7208 8.70752 16.4758 9.37659 15.6526 10.4828C14.8294 9.37659 13.5845 8.70752 12.2404 8.70752C9.81283 8.70752 7.83789 10.8737 7.83789 13.5364C7.83789 19.1776 15.0903 22.1883 15.399 22.3136C15.4804 22.3468 15.5666 22.3632 15.6527 22.3632ZM9.18564 13.5364C9.18564 11.6168 10.556 10.0552 12.2405 10.0552C13.4385 10.0552 14.532 10.8607 15.0263 12.1074C15.2468 12.6633 16.0586 12.6633 16.2791 12.1074C16.7733 10.8607 17.8668 10.0552 19.0648 10.0552C20.8879 10.0552 22.1429 11.8142 22.1197 13.5273C22.0635 17.6982 16.872 20.3784 15.6492 20.952C14.4177 20.3879 9.18564 17.7432 9.18564 13.5364Z" fill="currentColor" fill-rule="nonzero" />
	</g>
</svg>
