<svg  viewBox="0 0 27 27" fill="none" xmlns="http://www.w3.org/2000/svg">
<path d="M13.3954 0.0126646C7.90879 0.0126646 2.69872 -0.46566 0.708681 4.53972C-0.113325 6.60703 0.00604707 9.29187 0.00604707 13.1362C0.00604707 16.5097 -0.104259 19.6803 0.708681 21.7313C2.69419 26.7396 7.94657 26.2598 13.3924 26.2598C18.6463 26.2598 24.0633 26.7959 26.0776 21.7313C26.9011 19.6432 26.7802 16.9984 26.7802 13.1362C26.7802 8.00943 27.0688 4.69966 24.5318 2.21474C21.963 -0.302763 18.4891 0.0126646 13.3893 0.0126646H13.3954ZM13.0554 2.13247C23.2096 2.13247 25.3855 1.42165 24.6602 18.4814C23.9349 24.168 19.1563 24.4681 13.3954 24.4681C3.30469 24.4681 1.88609 23.4572 1.66601 13.1362C1.4162 1.42165 5.07709 2.13247 13.0554 2.13247ZM20.5426 4.55601C19.6556 4.55601 18.9364 5.26091 18.9364 6.13019C18.9364 6.99947 19.6556 7.70437 20.5426 7.70437C21.4296 7.70437 22.1489 6.99947 22.1489 6.13019C22.1489 5.26091 21.4296 4.55601 20.5426 4.55601ZM13.3954 6.39675C9.59814 6.39675 6.52015 9.41479 6.52015 13.1362C6.52015 16.8577 9.59814 19.8743 13.3954 19.8743C17.1926 19.8743 20.2691 16.8577 20.2691 13.1362C20.2691 9.41479 17.1926 6.39675 13.3954 6.39675ZM13.3954 8.76171C19.296 8.76171 19.3036 17.5108 13.3954 17.5108C7.49628 17.5108 7.48721 8.76171 13.3954 8.76171Z" fill="white"/>
</svg>
