<svg  viewBox="0 0 17 16" fill="none" xmlns="http://www.w3.org/2000/svg">
<path d="M1.84375 0.676758C2.20878 0.311642 2.77253 0.316537 3.09863 0.642578L5.57422 3.11914C5.90085 3.44617 5.90626 4.00925 5.54199 4.37402L5.12988 4.78613L4.29297 5.62207L4.07617 5.83887L4.22852 6.10449C4.27037 6.17772 4.31243 6.25499 4.35938 6.33984L4.36035 6.34082C4.80093 7.13405 5.42182 8.25593 6.60156 9.43555C7.77693 10.6118 8.89648 11.2315 9.68945 11.6709V11.6719C9.77602 11.7205 9.85877 11.7666 9.93848 11.8105L10.2021 11.9551L10.415 11.7432L11.6621 10.4951C12.0032 10.1539 12.5202 10.1365 12.8535 10.4043L12.918 10.4619L15.3936 12.9375C15.7204 13.2654 15.7244 13.8295 15.3604 14.1943L14.8066 14.7363L14.6748 14.8408C14.4081 15.0495 14.0979 15.2253 13.7646 15.3555C13.531 15.4462 13.3016 15.5117 13.0674 15.5547L12.8369 15.5898C12.7768 15.5962 9.15698 15.975 4.60742 11.4258C1.27023 8.08852 0.14305 5.72855 0.447266 3.20605L0.448242 3.20312C0.482183 2.90269 0.556258 2.59907 0.678711 2.27539C0.810668 1.93863 0.987322 1.62799 1.19629 1.36133L1.32031 1.20117L1.84277 0.675781L1.84375 0.676758Z" stroke="#956D84" stroke-width="0.8"/>
</svg>
