<svg  viewBox="0 0 19 20" fill="none" xmlns="http://www.w3.org/2000/svg">
<path d="M18.0071 18.2338L12.744 12.9708C13.7423 11.7384 14.3432 10.1716 14.3432 8.46579C14.3432 4.51139 11.126 1.29419 7.17156 1.29419C3.21716 1.29419 0 4.51139 0 8.46579C0 12.4202 3.2172 15.6374 7.1716 15.6374C8.87742 15.6374 10.4442 15.0365 11.6766 14.0382L16.9396 19.3013C17.0871 19.4487 17.326 19.4487 17.4735 19.3013L18.0071 18.7676C18.1545 18.6202 18.1545 18.3812 18.0071 18.2338ZM7.1716 14.1276C4.04952 14.1276 1.50982 11.5879 1.50982 8.46579C1.50982 5.34371 4.04952 2.80401 7.1716 2.80401C10.2937 2.80401 12.8334 5.34371 12.8334 8.46579C12.8334 11.5879 10.2937 14.1276 7.1716 14.1276Z" fill="#956D84"/>
</svg>
