<svg  viewBox="0 0 26 28" fill="none" xmlns="http://www.w3.org/2000/svg">
<path d="M15.1796 0H9.94437C4.46107 0 0 4.46002 0 9.94228V14.6583C0 18.7409 2.50873 22.41 6.28099 23.9044V26.9617C6.28099 27.1689 6.40294 27.3563 6.59242 27.4401C6.66046 27.4704 6.73269 27.4851 6.8044 27.4851C6.93159 27.4851 7.05773 27.4385 7.15561 27.3495L10.1909 24.6005H15.1796C20.6629 24.6005 25.1239 20.1405 25.1239 14.6583V9.94228C25.1239 4.46002 20.6629 0 15.1796 0ZM24.0771 14.6583C24.0771 19.5632 20.0861 23.5537 15.1796 23.5537H9.98886C9.85905 23.5537 9.73396 23.6019 9.63765 23.6893L7.32782 25.7814V23.5417C7.32782 23.3197 7.18807 23.1219 6.9787 23.0486C3.43099 21.794 1.04683 18.4221 1.04683 14.6583V9.94228C1.04683 5.03735 5.0384 1.04683 9.94437 1.04683H15.1796C20.0861 1.04683 24.0771 5.03735 24.0771 9.94228V14.6583Z" fill="white"/>
<path d="M19.4788 15.9604L16.2619 13.871C15.9102 13.6422 15.4914 13.5648 15.0816 13.6496C14.6713 13.7359 14.3185 13.9783 14.0897 14.3316L13.9385 14.564C12.5462 14.1039 11.011 13.5161 10.0919 10.8556L10.4724 10.5248C11.1256 9.95686 11.1942 8.96342 10.6263 8.30915L8.10971 5.41414C7.92024 5.19587 7.58944 5.17337 7.37117 5.36232L5.79098 6.73576C4.40498 7.94067 5.05244 9.72289 5.26547 10.3086C5.27489 10.3348 5.28641 10.3599 5.30002 10.3845C5.35498 10.4829 6.66718 12.8247 8.78649 14.9832C10.9142 17.1507 14.7555 19.1522 14.8733 19.2103C15.3119 19.4951 15.8055 19.6317 16.2938 19.6317C17.1512 19.6317 17.9918 19.2114 18.4932 18.4409L19.6332 16.6854C19.7903 16.442 19.7212 16.118 19.4788 15.9604ZM17.6149 17.8704C17.1433 18.5969 16.1687 18.8031 15.3993 18.3069C15.3611 18.287 11.5449 16.2996 9.5334 14.2504C7.65329 12.3353 6.40495 10.2076 6.23484 9.9108C5.82029 8.74829 5.89357 8.03383 6.4777 7.52612L7.66324 6.49604L9.83646 8.99587C10.0296 9.2178 10.0071 9.54232 9.78621 9.73441L9.14398 10.2924C8.98748 10.4285 8.92572 10.6436 8.98696 10.8414C10.0819 14.3996 12.2112 15.0984 13.7657 15.6087L13.9924 15.6836C14.219 15.76 14.4671 15.6726 14.5969 15.4726L14.968 14.901C15.0444 14.7828 15.1617 14.7027 15.2978 14.6739C15.4344 14.6446 15.5736 14.6718 15.6919 14.7487L18.4702 16.5529L17.6149 17.8704Z" fill="white"/>
<path d="M13.7569 8.50377C13.4784 8.42369 13.189 8.58543 13.1099 8.86388C13.0309 9.14182 13.1921 9.43127 13.47 9.5103C14.2499 9.73223 14.8712 10.3546 15.0911 11.135C15.156 11.3653 15.3658 11.5166 15.5946 11.5166C15.6417 11.5166 15.6893 11.5103 15.737 11.4972C16.0149 11.4187 16.1771 11.1298 16.0986 10.8513C15.7809 9.72386 14.8833 8.82411 13.7569 8.50377Z" fill="white"/>
<path d="M17.7397 11.6298C17.7868 11.6298 17.8344 11.6236 17.8821 11.6105C18.1605 11.532 18.3223 11.2425 18.2438 10.9646C17.6261 8.77514 15.8837 7.02902 13.6958 6.40616C13.4179 6.32608 13.1284 6.48886 13.0494 6.76679C12.9703 7.04473 13.1316 7.33418 13.4095 7.41321C15.2503 7.93663 16.7164 9.4069 17.2362 11.2488C17.3016 11.4791 17.511 11.6298 17.7397 11.6298Z" fill="white"/>
<path d="M13.4698 3.96849C13.1913 3.88841 12.9019 4.05015 12.8228 4.32913C12.7438 4.60706 12.905 4.89651 13.1829 4.97555C16.302 5.86273 18.7866 8.35315 19.667 11.4743C19.7319 11.7046 19.9418 11.8558 20.1705 11.8558C20.2176 11.8558 20.2653 11.8496 20.3129 11.8365C20.5908 11.758 20.7531 11.4685 20.6746 11.1906C19.6963 7.72191 16.9358 4.95513 13.4698 3.96849Z" fill="white"/>
</svg>
